<svg xmlns="http://www.w3.org/2000/svg" fill="none" viewBox="0 0 501 200" width="86" height="34">
    <path fill="#fff" fill-rule="evenodd" d="M415.269 178.818c-.182 2.964-1.374 5.642-3.268 7.693-.233.227-.453.469-.686.691-2.244 2.078-5.227 3.376-8.53 3.376-6.937 0-12.559-5.601-12.559-12.513 0-6.913 5.622-12.514 12.559-12.514 6.677 0 12.085 5.205 12.484 11.757v1.51zm-12.49-22.686c-13.017 0-22.783 9.026-22.783 21.933 0 12.906 9.766 21.935 22.783 21.935 13.015 0 22.714-9.029 22.714-21.935 0-12.907-9.699-21.933-22.714-21.933zM355.287 174.886v9.601h9.573v3.302c-1.532 1.272-4.723 2.547-7.85 2.547-6.956 0-11.869-5.34-11.869-12.272 0-6.993 4.913-12.269 11.869-12.269 4.148 0 7.403 2.605 8.994 5.405l9.193-4.768c-2.937-5.277-8.681-10.299-18.187-10.299-12.698 0-23.036 8.454-23.036 21.931 0 13.479 10.338 21.935 23.036 21.935 7.193 0 12.946-2.607 17.325-6.75.09-.085.17-.177.259-.264.719-.777 1.172-1.795 1.242-2.919v-15.18h-20.549zM323.199 156.831h-.845c-2.367.211-4.227 2.131-4.325 4.519v18.815l-17.227-23.334h-11.295v42.405h10.975v-24.541l17.996 24.541h10.591v-42.405h-5.87zM256.98 183.598l5.425-15.96 5.362 15.96H256.98zm12.316-26.767h-13.847l-16.015 42.405h12.438l2.108-6.103h16.785l1.105 3.2.011.039c.688 1.617 2.26 2.755 4.108 2.864h9.324l-16.017-42.405zM217.702 189.697h-6.893v-23.331h6.955c7.783 0 11.739 5.087 11.739 11.633 0 6.295-4.338 11.698-11.801 11.698zm0-32.866h-17.87v37.958c.151 2.439 2.129 4.373 4.601 4.447h13.331c13.332 0 22.974-8.073 22.974-21.237 0-13.158-9.642-21.168-23.036-21.168zM186.321 156.831h-.564c-2.393.141-4.3 2.03-4.456 4.414v18.92l-17.226-23.334h-11.296v42.405h10.975v-24.541l17.997 24.541h10.591v-42.405h-6.021zM120.496 183.598l5.427-15.96 5.361 15.96h-10.788zm12.319-26.767H118.65l-16.014 42.405h12.755l2.108-6.103h16.781l1.103 3.2.014.039c.688 1.617 2.26 2.755 4.108 2.864h9.324l-16.014-42.405zM106.882 166.289v-9.458H74.258v42.404l11.639.001v-14.919l10.513-.001h.993c1.989-.236 3.545-1.862 3.663-3.878v-5.671h-15.17v-8.478h20.986zM444.128 178.186h41.432v-5.137h-41.432v5.137z" clip-rule="evenodd"/>
    <mask id="pj8uyeo7va" width="133" height="179" x="0" y="0" maskUnits="userSpaceOnUse">
        <path fill="#fff" d="M0 0h132.046v178.186H0V0z"/>
    </mask>
    <g mask="url(#pj8uyeo7va)">
        <path fill="#fff" fill-rule="evenodd" d="M14.686 178.186h41.43v-5.137h-41.43v5.137zM128.4.015c-8.379-.018-13.547-.011-21.871-.011H106.319l-.008.003c-3.809.051-7.044 2.404-8.332 5.724-.125.203-.235.42-.305.617-8.34 23.417-15.612 43.511-23.951 66.944-2.19 6.151-4.361 12.31-6.588 18.458-.184.5-.655 1.139-1.119 1.266-.975.26-.99-.736-1.196-1.312-5.204-14.595-10.389-29.186-15.582-43.773-5.34-14.994-9.767-27.42-15.107-42.417-.056-.156-.144-.323-.255-.49-1.468-2.972-4.556-5.02-8.133-5.02-.095 0-.18.003-.269.01C17.036 0 12.071-.01 3.532.019.706.03-.68 2.066.272 4.676 13.12 40 25.967 75.332 38.812 110.658c.96 2.64 1.814 5.004 2.638 7.29 4.91 11.166 12.366 17.024 25.505 17.778 3.871-.004 3 .008 3 .008 4.264-.157 9.1-.794 14.61-1.871l9.094-25.633c12.715-34.601 25.092-68.282 37.976-103.369.148-.402.313-.8.376-1.21.291-2.081-1.215-3.63-3.611-3.636z" clip-rule="evenodd"/>
    </g>
    <path fill="#fff" fill-rule="evenodd" d="M251.631 9.266c0-.083.011-.174.011-.257 0-4.691-3.673-8.526-8.336-8.892-.25-.059-22.961.01-22.961.01s.026 4.829.026 12.561c0 23.458.011 44.2-.037 68.003-.004 2.353-.184 4.77-.744 7.05-2.163 8.755-7.574 14.838-16.359 17.462-8.85 2.65-17.098 1.143-24.057-5.125-5.23-4.706-7.773-10.763-7.791-17.694-.041-16.208-.044-50.708-.044-69.467V.127s-22.803-.069-23.058-.01c-4.659.366-8.332 4.2-8.332 8.892 0 .083.008.174.015.257 0 1.41 0 2.806-.004 4.194-.007 24.371-.047 45.154.063 69.986.018 3.864.453 7.812 1.343 11.59 6.57 27.952 34.566 46.465 64.53 41.111 14.029-2.509 25.552-9.389 34.37-20.459 7.298-9.165 11.229-19.598 11.324-31.285.096-13 .019-25.988.019-38.984h.015c0-11.129.003-25.031 0-36.153h.007zM500.569 9.266c0-.083.014-.174.014-.257 0-4.691-3.676-8.526-8.332-8.892-.25-.059-22.967.01-22.967.01s.025 4.829.025 12.561c.004 23.458.015 44.2-.032 68.003-.008 2.353-.192 4.77-.747 7.05-2.165 8.755-7.574 14.838-16.359 17.462-8.848 2.65-17.095 1.143-24.058-5.125-5.23-4.706-7.769-10.763-7.784-17.694-.048-16.208-.052-50.708-.052-69.467 0-7.737.004-12.79.004-12.79s-22.807-.069-23.057-.01c-4.663.366-8.332 4.2-8.332 8.892 0 .083.007.174.007.257v4.194c-.003 24.371-.044 45.154.067 69.986.011 3.864.452 7.812 1.339 11.59 6.57 27.952 34.565 46.465 64.534 41.111 14.026-2.509 25.55-9.389 34.368-20.459 7.295-9.165 11.225-19.598 11.319-31.285.104-13 .024-25.988.024-38.984h.014c0-11.129.005-25.031 0-36.153h.005zM340.008 94.19c-6.289 7.365-14.408 11.527-24.124 12.607-1.873.218-3.772.268-5.667.283-5.381.036-10.768.011-16.149.011-1.984 0-1.984 0-1.984-1.896V30.333c0-1.78.004-1.801 1.756-1.794 6.591.047 13.19-.12 19.766.214 12.263.63 21.953 6.083 28.934 16.026 4.285 6.094 6.43 12.953 6.842 20.359.607 10.864-2.215 20.67-9.374 29.051zm9.216-83.588C339.169 4.345 328.125.971 316.216.572c-5.465-.178-10.938-.163-16.407-.178C288.591.372 282.14.38 270.978.39c-.067-.003-.129-.014-.199-.014-5.002 0-9.054 3.995-9.054 8.918 0 .058.012.116.012.174-.008.366-.004.736-.004 1.098v115.857h.004c-.004.043-.012.094-.012.142 0 4.926 4.052 8.917 9.054 8.917 16.201-.065 27.322.007 43.519-.08 3.301-.014 6.632-.286 9.885-.819 13.227-2.164 25.004-7.544 34.823-16.556 18.493-16.972 25.938-37.972 21.577-62.47-3.47-19.474-14.415-34.41-31.359-44.955z" clip-rule="evenodd"/>
</svg>